<svg id="Layer_1" data-name="Layer 1" xmlns="http://www.w3.org/2000/svg" viewBox="0 0 307.2 307.2"><defs><style>.cls-1{fill:#d8d8d8;}.cls-2{fill:#5c5c5b;}.cls-2,.cls-3,.cls-4,.cls-5,.cls-6,.cls-7,.cls-8{fill-rule:evenodd;}.cls-3{fill:#e3a20c;}.cls-4{fill:#f7b723;}.cls-5{fill:#e6a919;}.cls-6{fill:#ffc94a;}.cls-7{fill:#fcbd29;}.cls-8{fill:#d99a09;}</style></defs><rect class="cls-1" width="307.2" height="307.2"/><polygon class="cls-2" points="269.1 114.93 307.2 169.75 307.2 307.2 128.66 307.2 63.48 158.22 269.1 114.93"/><polygon class="cls-3" points="63.48 158.22 63.49 77.88 153.6 59.85 243.71 77.88 243.72 158.22 153.6 247.35 63.48 158.22"/><polygon class="cls-4" points="63.48 158.22 153.6 130.65 153.6 59.85 63.49 77.88 63.48 158.22"/><polygon class="cls-5" points="243.72 158.22 153.6 130.65 153.6 59.85 243.71 77.88 243.72 158.22"/><polygon class="cls-4" points="63.49 77.88 153.6 117.62 153.6 247.35 63.48 158.22 63.49 77.88"/><polygon class="cls-6" points="243.71 77.88 153.6 117.62 153.6 247.35 243.72 158.22 243.71 77.88"/><polygon class="cls-5" points="153.6 117.62 182.93 195.45 243.72 140.55 153.6 117.62"/><polygon class="cls-7" points="243.71 77.88 269.1 114.93 196.62 177.84 153.6 117.62 243.71 77.88"/><polygon class="cls-8" points="153.6 117.62 132.98 191.85 63.48 132.75 153.6 117.62"/><polygon class="cls-3" points="63.49 77.88 38.1 114.93 110.58 177.84 153.6 117.62 63.49 77.88"/></svg>